<?xml version="1.0" encoding="iso-8859-1"?>
<!-- Generator: Adobe Illustrator 19.0.0, SVG Export Plug-In . SVG Version: 6.00 Build 0)  -->
<svg xmlns="http://www.w3.org/2000/svg" xmlns:xlink="http://www.w3.org/1999/xlink" version="1.1" id="Layer_1" x="0px" y="0px" viewBox="0 0 512 512" style="enable-background:new 0 0 512 512;" xml:space="preserve" width="512px" height="512px">
<g transform="translate(1 1)">
	<g>
		<g>
			<path d="M292.547,152.6c-4.267-1.707-9.387,0.853-11.093,5.12l-68.267,187.733c-1.707,4.267,0.853,9.387,5.12,11.093     c0.853,0.853,1.707,0.853,2.56,0.853c3.413,0,6.827-2.56,8.533-5.973l68.267-187.733     C299.373,159.427,296.813,154.307,292.547,152.6z" fill="#585858"/>
			<path d="M161.133,229.4v-42.667c0-9.387,7.68-17.067,17.067-17.067c5.12,0,8.533-3.413,8.533-8.533s-3.413-8.533-8.533-8.533     c-18.773,0-34.133,15.36-34.133,34.133v39.253l-23.04,23.04c-3.413,3.413-3.413,8.533,0,11.947l23.04,23.04v39.253     c0,18.773,15.36,34.133,34.133,34.133c5.12,0,8.533-3.413,8.533-8.533s-3.413-8.533-8.533-8.533     c-9.387,0-17.067-7.68-17.067-17.067V280.6c0-2.56-0.853-4.267-2.56-5.973L138.947,255l19.627-19.627     C160.28,233.667,161.133,231.96,161.133,229.4z" fill="#585858"/>
			<path d="M365.933,225.987v-39.253c0-18.773-15.36-34.133-34.133-34.133c-5.12,0-8.533,3.413-8.533,8.533s3.413,8.533,8.533,8.533     c9.387,0,17.067,7.68,17.067,17.067V229.4c0,2.56,0.853,4.267,2.56,5.973L371.053,255l-19.627,19.627     c-1.707,1.707-2.56,3.413-2.56,5.973v42.667c0,9.387-7.68,17.067-17.067,17.067c-5.12,0-8.533,3.413-8.533,8.533     s3.413,8.533,8.533,8.533c18.773,0,34.133-15.36,34.133-34.133v-39.253l23.04-23.04c1.707-1.707,2.56-3.413,2.56-5.973     c0-2.56-0.853-4.267-2.56-5.973L365.933,225.987z" fill="#585858"/>
			<path d="M400.067-1H109.933C48.493-1-1,48.493-1,109.933v290.133C-1,461.507,48.493,511,109.933,511h290.133     C461.507,511,511,461.507,511,400.067V109.933C511,48.493,461.507-1,400.067-1z M493.933,400.067     c0,52.053-41.813,93.867-93.867,93.867H109.933c-52.053,0-93.867-41.813-93.867-93.867V109.933     c0-52.053,41.813-93.867,93.867-93.867h290.133c52.053,0,93.867,41.813,93.867,93.867V400.067z" fill="#585858"/>
		</g>
	</g>
</g>
<g>
</g>
<g>
</g>
<g>
</g>
<g>
</g>
<g>
</g>
<g>
</g>
<g>
</g>
<g>
</g>
<g>
</g>
<g>
</g>
<g>
</g>
<g>
</g>
<g>
</g>
<g>
</g>
<g>
</g>
</svg>
